# Blender v2.93.3 OBJ File: ''
# www.blender.org
mtllib Stupid Cylinder.mtl
o obj_0
v -1.937000 3.997000 -3.623000
v -1.572000 3.997000 -3.795000
v -1.913000 3.105000 -4.619000
v -4.619000 3.105000 1.913000
v -4.410000 0.000000 2.357000
v -4.410000 3.105000 2.357000
v -4.157000 3.105000 2.778000
v 2.357000 3.105000 -4.410000
v 1.572000 3.997000 -3.795000
v 1.936000 3.997000 -3.623000
v 1.192000 3.997000 -3.931000
v 1.913000 3.105000 -4.619000
v 1.451000 3.105000 -4.785000
v 3.172000 0.000000 -3.865000
v 3.536000 0.000000 -3.536000
v 1.913000 0.000000 -4.619000
v 2.778000 0.000000 -4.157000
v 2.357000 0.000000 -4.410000
v 3.865000 0.000000 -3.172000
v 4.157000 0.000000 -2.778000
v 4.410000 0.000000 -2.357000
v 4.619000 0.000000 -1.913000
v 1.451000 0.000000 -4.785000
v 4.785000 0.000000 -1.451000
v -1.913000 0.000000 -4.619000
v -2.357000 3.105000 -4.410000
v -2.778000 3.105000 -4.157000
v -2.282000 3.997000 -3.416000
v 0.801000 3.997000 -4.029000
v -3.172000 3.105000 -3.865000
v -2.606000 3.997000 -3.176000
v 4.976000 0.000000 0.490000
v 4.976000 3.105000 0.490000
v 4.904000 3.105000 0.975000
v 5.000000 3.105000 0.000000
v -2.905000 3.997000 -2.905000
v 4.904000 0.000000 -0.975000
v 4.904000 3.105000 -0.975000
v 4.976000 3.105000 -0.490000
v 4.785000 3.105000 -1.451000
v -2.778000 0.000000 -4.157000
v -2.357000 0.000000 -4.410000
v -1.451000 0.000000 -4.785000
v -0.975000 0.000000 -4.904000
v 4.904000 0.000000 0.975000
v 4.785000 0.000000 1.451000
v 4.088000 3.997000 0.403000
v -4.619000 3.105000 -1.913000
v -4.785000 0.000000 -1.451000
v -4.785000 3.105000 -1.451000
v 4.157000 3.105000 2.778000
v 3.865000 0.000000 3.172000
v 4.157000 0.000000 2.778000
v -4.904000 3.105000 -0.975000
v 4.410000 0.000000 2.357000
v 4.410000 3.105000 2.357000
v 4.619000 0.000000 1.913000
v 4.619000 3.105000 -1.913000
v 3.795000 3.997000 -1.572000
v -3.536000 3.105000 -3.536000
v 4.029000 3.997000 -0.801000
v 3.931000 3.997000 -1.192000
v 3.623000 3.997000 -1.936000
v 4.785000 3.105000 1.451000
v 4.029000 3.997000 0.801000
v 4.410000 3.105000 -2.357000
v -3.176000 3.997000 -2.606000
v -3.865000 3.105000 -3.172000
v 4.157000 3.105000 -2.778000
v 3.416000 3.997000 -2.282000
v -3.536000 0.000000 -3.536000
v -3.172000 0.000000 -3.865000
v -3.416000 3.997000 -2.282000
v -3.795000 3.997000 1.572000
v -4.785000 3.105000 1.451000
v 3.176000 3.997000 -2.606000
v -4.157000 3.105000 -2.778000
v -3.865000 0.000000 -3.172000
v -3.623000 3.997000 -1.936000
v 3.865000 3.105000 -3.172000
v 3.931000 3.997000 1.192000
v -4.157000 0.000000 -2.778000
v -4.410000 3.105000 -2.357000
v 0.403000 3.997000 -4.088000
v 0.975000 3.105000 -4.904000
v 2.905000 3.997000 -2.905000
v -4.410000 0.000000 -2.357000
v 3.536000 3.105000 -3.536000
v 0.490000 3.105000 -4.976000
v -3.795000 3.997000 -1.572000
v -4.619000 0.000000 -1.913000
v 4.108000 3.997000 0.000000
v 0.000000 3.105000 -5.000000
v 0.000000 3.997000 -4.108000
v -4.904000 0.000000 -0.975000
v -3.931000 3.997000 -1.192000
v 2.778000 3.105000 -4.157000
v 2.282000 3.997000 -3.416000
v 3.172000 3.105000 -3.865000
v -0.403000 3.997000 -4.088000
v -0.490000 3.105000 -4.976000
v -4.029000 3.997000 -0.801000
v -0.975000 3.105000 -4.904000
v -0.801000 3.997000 -4.029000
v -3.623000 3.997000 1.937000
v -4.976000 0.000000 -0.490000
v -3.416000 3.997000 2.282000
v -1.192000 3.997000 -3.931000
v -4.088000 3.997000 -0.403000
v -1.451000 3.105000 -4.785000
v 2.606000 3.997000 -3.176000
v -3.865000 3.105000 3.172000
v -3.176000 3.997000 2.606000
v -4.976000 3.105000 -0.490000
v -4.904000 0.000000 0.975000
v -4.785000 0.000000 1.451000
v -2.905000 3.997000 2.905000
v -5.000000 0.000000 0.000000
v -5.000000 3.105000 0.000000
v -4.619000 0.000000 1.913000
v -3.536000 3.105000 3.536000
v -4.976000 3.105000 0.490000
v -4.976000 0.000000 0.490000
v -4.904000 3.105000 0.975000
v -4.157000 0.000000 2.778000
v -3.865000 0.000000 3.172000
v 1.451000 0.000000 4.785000
v 1.451000 3.105000 4.785000
v 0.975000 3.105000 4.904000
v 1.913000 3.105000 4.619000
v -4.108000 3.997000 0.000000
v -3.536000 0.000000 3.536000
v -4.088000 3.997000 0.403000
v 3.172000 0.000000 3.865000
v 3.172000 3.105000 3.865000
v 2.778000 3.105000 4.157000
v -4.029000 3.997000 0.801000
v -0.403000 3.997000 4.088000
v -0.801000 3.997000 4.029000
v -0.975000 3.105000 4.904000
v 0.975000 0.000000 4.904000
v 3.536000 3.105000 3.536000
v -0.490000 3.105000 4.976000
v 1.913000 0.000000 4.619000
v 2.357000 0.000000 4.410000
v 2.357000 3.105000 4.410000
v 2.778000 0.000000 4.157000
v 4.088000 3.997000 -0.403000
v -3.931000 3.997000 1.192000
v 3.536000 0.000000 3.536000
v -1.451000 3.105000 4.785000
v -1.451000 0.000000 4.785000
v 3.865000 3.105000 3.172000
v -3.172000 3.105000 3.865000
v -2.282000 3.997000 3.416000
v -2.606000 3.997000 3.176000
v 0.490000 3.105000 4.976000
v -2.778000 3.105000 4.157000
v -1.937000 3.997000 3.623000
v 4.619000 3.105000 1.913000
v -2.357000 3.105000 4.410000
v -1.913000 3.105000 4.619000
v -1.572000 3.997000 3.795000
v -3.172000 0.000000 3.865000
v -2.778000 0.000000 4.157000
v -2.357000 0.000000 4.410000
v -1.913000 0.000000 4.619000
v -1.192000 3.997000 3.931000
v 3.623000 3.997000 1.937000
v 2.606000 3.997000 3.176000
v 3.416000 3.997000 2.282000
v 1.572000 3.997000 3.795000
v 3.795000 3.997000 1.572000
v -0.975000 0.000000 4.904000
v 3.176000 3.997000 2.606000
v 2.905000 3.997000 2.905000
v 2.282000 3.997000 3.416000
v 0.975000 0.000000 -4.904000
v -0.490000 0.000000 4.976000
v 0.490000 0.000000 4.976000
v 0.000000 0.000000 5.000000
v -0.490000 0.000000 -4.976000
v 0.000000 0.000000 -5.000000
v 0.490000 0.000000 -4.976000
v 5.000000 0.000000 0.000000
v 4.976000 0.000000 -0.490000
v 1.192000 3.997000 3.931000
v 0.801000 3.997000 4.029000
v 1.936000 3.997000 3.623000
v 0.403000 3.997000 4.088000
v 0.000000 3.997000 4.108000
v 0.000000 3.105000 5.000000
vn -0.3330 0.7071 -0.6238
vn -0.2703 0.7071 -0.6534
vn -0.2705 0.7070 -0.6534
vn -0.9240 0.0000 0.3825
vn -0.8821 0.0000 0.4711
vn -0.8312 0.0000 0.5559
vn 0.3332 0.7072 -0.6236
vn 0.2704 0.7071 -0.6533
vn 0.3331 0.7072 -0.6237
vn 0.2054 0.7072 -0.6765
vn 0.2704 0.7071 -0.6534
vn 0.2056 0.7072 -0.6764
vn 0.0000 -1.0000 0.0000
vn -0.3331 0.7071 -0.6238
vn -0.3932 0.7070 -0.5879
vn -0.3929 0.7070 -0.5880
vn 0.1379 0.7072 -0.6934
vn -0.4482 0.7071 -0.5469
vn -0.4485 0.7070 -0.5468
vn 0.9952 0.0000 0.0980
vn 0.9808 0.0000 0.1949
vn 1.0000 0.0000 0.0000
vn -0.4999 0.7071 -0.5001
vn 0.9808 0.0000 -0.1949
vn 0.9952 0.0000 -0.0980
vn 0.9568 0.0000 -0.2907
vn 0.7036 0.7072 0.0693
vn 0.7036 0.7072 0.0695
vn 0.6935 0.7072 0.1378
vn -0.9240 0.0000 -0.3825
vn -0.9568 0.0000 -0.2907
vn 0.8312 0.0000 0.5559
vn 0.7736 0.0000 0.6337
vn -0.9808 0.0000 -0.1949
vn 0.8821 0.0000 0.4711
vn 0.9240 0.0000 0.3825
vn 0.6533 0.7071 -0.2705
vn 0.6533 0.7071 -0.2706
vn 0.6765 0.7072 -0.2054
vn -0.4999 0.7072 -0.5000
vn 0.6934 0.7072 -0.1379
vn 0.6934 0.7072 -0.1380
vn 0.7036 0.7072 -0.0693
vn 0.6765 0.7072 -0.2053
vn 0.6238 0.7072 -0.3328
vn 0.6764 0.7072 0.2056
vn 0.6934 0.7072 0.1379
vn 0.6237 0.7072 -0.3330
vn -0.5468 0.7071 -0.4483
vn -0.5471 0.7070 -0.4482
vn 0.5879 0.7070 -0.3932
vn 0.5881 0.7071 -0.3925
vn -0.5883 0.7070 -0.3925
vn -0.6534 0.7070 0.2705
vn -0.6534 0.7071 0.2703
vn -0.6765 0.7072 0.2054
vn 0.5468 0.7070 -0.4485
vn -0.6337 0.0000 -0.7736
vn -0.7071 0.0000 -0.7071
vn -0.5878 0.7071 -0.3930
vn -0.7736 0.0000 -0.6337
vn -0.6237 0.7072 -0.3331
vn 0.5469 0.7071 -0.4482
vn 0.6765 0.7072 0.2054
vn -0.8312 0.0000 -0.5559
vn -0.6236 0.7072 -0.3332
vn 0.0695 0.7072 -0.7036
vn 0.1378 0.7072 -0.6935
vn 0.5001 0.7072 -0.4999
vn -0.8821 0.0000 -0.4711
vn 0.5000 0.7072 -0.4999
vn 0.0693 0.7072 -0.7036
vn -0.6534 0.7071 -0.2704
vn -0.6533 0.7071 -0.2704
vn 0.7071 0.7071 -0.0000
vn 0.7071 0.7072 -0.0001
vn -0.0000 0.7071 -0.7071
vn -0.0001 0.7072 -0.7071
vn -0.6765 0.7072 -0.2054
vn 0.3930 0.7071 -0.5878
vn 0.3925 0.7070 -0.5883
vn 0.4482 0.7070 -0.5471
vn -0.0694 0.7072 -0.7036
vn -0.6764 0.7072 -0.2056
vn -0.0693 0.7072 -0.7036
vn -0.6935 0.7072 -0.1378
vn -0.6934 0.7072 -0.1379
vn -0.1379 0.7072 -0.6934
vn -0.1380 0.7072 -0.6934
vn -0.6238 0.7071 0.3330
vn 0.4711 0.0000 -0.8821
vn 0.3825 0.0000 -0.9240
vn -0.6238 0.7071 0.3331
vn -0.5879 0.7070 0.3932
vn -0.5880 0.7070 0.3929
vn 0.2907 0.0000 -0.9568
vn -0.2053 0.7072 -0.6765
vn -0.7036 0.7072 -0.0695
vn -0.2054 0.7072 -0.6765
vn 0.4483 0.7071 -0.5468
vn -0.5469 0.7071 0.4482
vn -0.5468 0.7070 0.4485
vn -0.9952 0.0000 -0.0980
vn -0.9808 0.0000 0.1949
vn -0.9568 0.0000 0.2907
vn -0.5001 0.7072 0.4999
vn -0.3825 0.0000 -0.9240
vn -0.2907 0.0000 -0.9568
vn -1.0000 0.0000 0.0000
vn -0.4711 0.0000 -0.8821
vn -0.5000 0.7072 0.4999
vn -0.9952 0.0000 0.0980
vn -0.5559 0.0000 -0.8312
vn -0.7736 0.0000 0.6337
vn 0.2907 0.0000 0.9568
vn 0.1949 0.0000 0.9808
vn -0.7036 0.7072 -0.0693
vn 0.0000 1.0000 0.0000
vn 0.3825 0.0000 0.9240
vn -0.7071 0.7071 0.0000
vn -0.7071 0.7072 0.0001
vn -0.7036 0.7072 0.0694
vn 0.6337 0.0000 0.7736
vn 0.5559 0.0000 0.8312
vn -0.7036 0.7072 0.0693
vn -0.6934 0.7072 0.1379
vn -0.6934 0.7072 0.1380
vn -0.0695 0.7072 0.7036
vn -0.1379 0.7072 0.6934
vn -0.1378 0.7072 0.6935
vn 0.7071 0.0000 0.7071
vn -0.0693 0.7072 0.7036
vn 0.3824 0.0000 0.9240
vn 0.4711 0.0000 0.8821
vn 0.7036 0.7072 -0.0694
vn -0.6765 0.7072 0.2053
vn -0.2907 0.0000 0.9568
vn -0.1949 0.0000 0.9808
vn -0.4482 0.7070 0.5471
vn -0.3929 0.7070 0.5881
vn -0.4483 0.7071 0.5468
vn 0.0980 0.0000 0.9952
vn -0.3931 0.7070 0.5879
vn -0.3331 0.7071 0.6238
vn -0.3331 0.7071 0.6237
vn -0.6337 0.0000 0.7736
vn -0.7071 0.0000 0.7071
vn -0.2704 0.7071 0.6534
vn -0.2701 0.7070 0.6535
vn -0.5559 0.0000 0.8312
vn 0.9568 0.0000 0.2907
vn -0.4711 0.0000 0.8821
vn -0.3825 0.0000 0.9240
vn -0.2054 0.7072 0.6765
vn -0.2056 0.7072 0.6764
vn 0.1949 0.0000 -0.9808
vn 0.5471 0.7070 0.4482
vn 0.5468 0.7071 0.4483
vn 0.4999 0.7072 0.5000
vn 0.5881 0.7070 0.3929
vn 0.5879 0.7070 0.3931
vn 0.6238 0.7071 0.3331
vn 0.6237 0.7071 0.3331
vn 0.6534 0.7071 0.2704
vn 0.6535 0.7070 0.2701
vn 0.2053 0.7072 0.6765
vn 0.1380 0.7072 0.6934
vn 0.1379 0.7072 0.6934
vn 0.2054 0.7072 0.6765
vn 0.2705 0.7071 0.6533
vn 0.2706 0.7071 0.6533
vn 0.9240 0.0000 -0.3825
vn 0.8821 0.0000 -0.4711
vn 0.3328 0.7072 0.6238
vn 0.3330 0.7072 0.6237
vn 0.8312 0.0000 -0.5559
vn 0.3932 0.7070 0.5879
vn 0.3925 0.7071 0.5881
vn 0.7736 0.0000 -0.6337
vn 0.4482 0.7071 0.5469
vn 0.4485 0.7070 0.5468
vn 0.7071 0.0000 -0.7071
vn 0.6337 0.0000 -0.7736
vn 0.4999 0.7071 0.5001
vn 0.5559 0.0000 -0.8312
vn 0.0000 0.0000 1.0000
vn 0.0980 0.0000 -0.9952
vn 0.0000 0.0000 -1.0000
vn -0.0980 0.0000 0.9952
vn -0.0980 0.0000 -0.9952
vn 0.0694 0.7072 0.7036
vn 0.0001 0.7072 0.7071
vn 0.0000 0.7071 0.7071
vn -0.1949 0.0000 -0.9808
vn 0.0693 0.7072 0.7036
usemtl color_16089887
s 1
f 1//1 2//2 3//3
f 4//4 5//5 6//5
f 5//5 7//6 6//5
f 8//7 9//8 10//9
f 11//10 9//8 12//11
f 13//12 11//10 12//11
f 14//13 15//13 16//13
f 17//13 14//13 16//13
f 17//13 16//13 18//13
f 19//13 20//13 16//13
f 15//13 19//13 16//13
f 20//13 21//13 16//13
f 21//13 22//13 16//13
f 23//13 16//13 22//13
f 24//13 25//13 22//13
f 26//14 1//1 3//3
f 27//15 28//16 26//14
f 28//16 1//1 26//14
f 13//12 29//17 11//10
f 30//18 31//19 27//15
f 32//20 33//20 34//21
f 35//22 33//20 32//20
f 31//19 28//16 27//15
f 36//23 31//19 30//18
f 37//24 38//24 39//25
f 40//26 38//24 37//24
f 24//13 37//13 41//13
f 42//13 24//13 41//13
f 25//13 24//13 42//13
f 43//13 22//13 25//13
f 44//13 22//13 43//13
f 45//13 46//13 41//13
f 33//27 47//28 34//29
f 48//30 49//31 50//31
f 51//32 52//33 53//32
f 49//31 54//34 50//31
f 53//32 55//35 56//35
f 53//32 56//35 51//32
f 55//35 57//36 56//35
f 58//37 59//38 40//39
f 60//40 36//23 30//18
f 38//41 61//42 39//43
f 59//38 62//44 40//39
f 62//44 61//42 38//41
f 63//45 59//38 58//37
f 64//46 34//29 65//47
f 66//48 63//45 58//37
f 40//39 62//44 38//41
f 67//49 60//40 68//50
f 69//51 70//52 66//48
f 70//52 63//45 66//48
f 67//49 36//23 60//40
f 46//13 57//13 41//13
f 71//13 72//13 57//13
f 57//13 55//13 71//13
f 53//13 71//13 55//13
f 52//13 71//13 53//13
f 73//53 67//49 68//50
f 4//54 74//55 75//56
f 76//57 70//52 69//51
f 72//58 71//59 60//59
f 77//60 73//53 68//50
f 71//59 78//61 68//61
f 71//59 68//61 60//59
f 79//62 73//53 77//60
f 80//63 76//57 69//51
f 64//46 65//47 81//64
f 77//65 68//61 82//65
f 78//61 82//65 68//61
f 83//66 79//62 77//60
f 34//29 47//28 65//47
f 84//67 29//17 85//68
f 86//69 76//57 80//63
f 82//65 87//70 83//70
f 82//65 83//70 77//65
f 88//71 86//69 80//63
f 89//72 84//67 85//68
f 48//73 90//74 83//66
f 48//30 83//70 91//30
f 87//70 91//30 83//70
f 35//75 92//76 33//27
f 91//30 49//31 48//30
f 93//77 94//78 89//72
f 90//74 79//62 83//66
f 54//34 49//31 95//34
f 94//78 84//67 89//72
f 96//79 90//74 48//73
f 97//80 98//81 99//82
f 93//77 100//83 94//78
f 50//84 96//79 48//73
f 101//85 100//83 93//77
f 54//86 102//87 50//84
f 103//88 104//89 101//85
f 105//90 74//55 4//54
f 87//13 82//13 91//13
f 82//13 78//13 91//13
f 78//13 71//13 91//13
f 49//13 91//13 71//13
f 106//13 95//13 71//13
f 49//13 71//13 95//13
f 8//91 16//92 12//92
f 6//93 105//90 4//54
f 7//94 107//95 6//93
f 104//89 100//83 101//85
f 16//92 23//96 13//96
f 16//92 13//96 12//92
f 102//87 96//79 50//84
f 107//95 105//90 6//93
f 108//97 104//89 103//88
f 109//98 102//87 54//86
f 110//99 108//97 103//88
f 99//82 111//100 88//71
f 7//94 112//101 113//102
f 113//102 107//95 7//94
f 54//34 106//103 114//103
f 95//34 106//103 54//34
f 111//100 86//69 88//71
f 115//104 116//105 75//105
f 117//106 113//102 112//101
f 3//107 110//108 25//107
f 43//108 25//107 110//108
f 106//103 118//109 119//109
f 106//103 119//109 114//103
f 99//82 98//81 111//100
f 4//4 75//105 120//4
f 116//105 120//4 75//105
f 25//107 42//110 26//110
f 25//107 26//110 3//107
f 121//111 117//106 112//101
f 122//112 119//109 118//109
f 122//112 118//109 123//112
f 120//4 5//5 4//4
f 27//113 26//110 41//113
f 42//110 41//113 26//110
f 124//104 122//112 115//104
f 123//112 115//104 122//112
f 10//9 98//81 97//80
f 7//6 5//5 125//6
f 30//58 27//113 72//58
f 41//113 72//58 27//113
f 115//104 75//105 124//104
f 8//7 10//9 97//80
f 125//6 126//114 112//114
f 125//6 112//114 7//6
f 12//11 9//8 8//7
f 127//115 128//115 129//116
f 72//58 60//59 30//58
f 114//117 109//98 54//86
f 10//118 28//118 98//118
f 130//119 128//115 127//115
f 11//118 28//118 9//118
f 3//3 2//2 110//99
f 119//120 131//121 114//117
f 2//2 108//97 110//99
f 131//121 109//98 114//117
f 71//13 132//13 126//13
f 71//13 126//13 125//13
f 71//13 125//13 5//13
f 71//13 5//13 120//13
f 71//13 120//13 116//13
f 71//13 116//13 115//13
f 71//13 115//13 123//13
f 71//13 123//13 118//13
f 71//13 118//13 106//13
f 133//122 131//121 119//120
f 9//118 28//118 10//118
f 29//118 28//118 11//118
f 111//118 98//118 28//118
f 134//123 135//123 136//124
f 122//125 133//122 119//120
f 59//118 28//118 62//118
f 124//126 137//127 122//125
f 138//128 139//129 140//130
f 141//116 127//115 129//116
f 142//131 135//123 134//123
f 143//132 138//128 140//130
f 130//119 127//115 144//133
f 33//27 92//76 47//28
f 144//133 145//134 146//134
f 144//133 146//134 130//119
f 63//118 28//118 59//118
f 70//118 28//118 63//118
f 76//118 28//118 70//118
f 111//118 28//118 86//118
f 86//118 28//118 76//118
f 122//125 137//127 133//122
f 29//118 84//118 28//118
f 136//124 146//134 147//124
f 145//134 147//124 146//134
f 92//76 35//75 148//135
f 149//136 137//127 124//126
f 39//43 148//135 35//75
f 108//118 28//118 104//118
f 147//124 134//123 136//124
f 75//56 149//136 124//126
f 142//131 134//123 150//131
f 75//56 74//55 149//136
f 61//42 148//135 39//43
f 100//118 28//118 94//118
f 84//118 94//118 28//118
f 104//118 28//118 100//118
f 142//131 150//131 52//33
f 151//137 152//137 140//138
f 36//118 67//118 61//118
f 52//33 153//33 142//131
f 134//13 147//13 71//13
f 147//13 145//13 71//13
f 150//13 134//13 71//13
f 145//13 144//13 71//13
f 144//13 127//13 71//13
f 141//13 71//13 127//13
f 51//32 153//33 52//33
f 67//118 73//118 61//118
f 108//118 2//118 28//118
f 1//118 28//118 2//118
f 154//139 155//140 156//141
f 129//116 157//142 141//116
f 131//118 133//118 61//118
f 131//118 61//118 109//118
f 31//118 36//118 61//118
f 158//143 155//140 154//139
f 159//144 155//140 158//143
f 57//36 160//36 56//35
f 92//118 137//118 47//118
f 161//145 159//144 158//143
f 154//146 121//147 132//147
f 162//148 163//149 161//145
f 164//146 165//150 158//150
f 164//146 158//150 154//146
f 46//151 64//151 160//36
f 46//151 160//36 57//36
f 161//152 158//150 166//152
f 165//150 166//152 158//150
f 47//118 137//118 65//118
f 61//118 62//118 28//118
f 28//118 31//118 61//118
f 161//145 163//149 159//144
f 34//21 64//151 46//151
f 166//152 167//153 162//153
f 166//152 162//153 161//152
f 168//154 163//149 162//148
f 168//154 162//148 151//155
f 151//137 162//153 152//137
f 167//153 152//137 162//153
f 169//118 170//118 171//118
f 140//130 139//129 151//155
f 81//118 172//118 173//118
f 139//129 168//154 151//155
f 174//138 140//138 152//137
f 112//114 132//147 121//147
f 175//118 171//118 176//118
f 170//118 176//118 171//118
f 169//118 173//118 170//118
f 170//118 173//118 177//118
f 154//139 156//141 121//111
f 117//118 81//118 113//118
f 156//141 117//106 121//111
f 13//96 23//96 178//156
f 148//118 61//118 133//118
f 92//118 148//118 137//118
f 81//118 65//118 137//118
f 137//118 149//118 81//118
f 107//118 113//118 81//118
f 156//118 155//118 81//118
f 117//118 156//118 81//118
f 167//13 71//13 152//13
f 174//13 152//13 71//13
f 166//13 71//13 167//13
f 165//13 71//13 166//13
f 164//13 71//13 165//13
f 132//13 71//13 164//13
f 179//13 174//13 71//13
f 52//13 150//13 71//13
f 180//13 71//13 141//13
f 181//13 71//13 180//13
f 179//13 71//13 181//13
f 73//118 79//118 61//118
f 153//157 175//158 142//159
f 126//114 132//147 112//114
f 164//146 154//146 132//147
f 79//118 90//118 61//118
f 153//157 171//160 175//158
f 109//118 61//118 102//118
f 96//118 102//118 61//118
f 90//118 96//118 61//118
f 182//13 22//13 44//13
f 23//13 22//13 178//13
f 182//13 183//13 22//13
f 183//13 184//13 22//13
f 178//13 22//13 184//13
f 51//161 171//160 153//157
f 169//162 171//160 51//161
f 34//21 46//151 45//21
f 56//163 169//162 51//161
f 160//164 173//165 56//163
f 45//21 32//20 34//21
f 173//165 169//162 56//163
f 35//22 32//20 185//22
f 74//118 81//118 149//118
f 137//118 148//118 133//118
f 185//22 186//25 39//25
f 185//22 39//25 35//22
f 81//64 173//165 160//164
f 105//118 81//118 74//118
f 64//46 81//64 160//164
f 186//25 37//24 39//25
f 107//118 81//118 105//118
f 37//13 186//13 41//13
f 72//13 41//13 57//13
f 45//13 41//13 32//13
f 185//13 41//13 186//13
f 32//13 41//13 185//13
f 187//166 188//167 129//168
f 128//169 187//166 129//168
f 40//26 37//24 24//26
f 172//118 81//118 187//118
f 187//118 81//118 188//118
f 189//118 173//118 172//118
f 177//118 173//118 189//118
f 190//118 188//118 81//118
f 130//170 172//171 128//169
f 190//118 81//118 191//118
f 24//26 22//172 58//172
f 24//26 58//172 40//26
f 172//171 187//166 128//169
f 66//173 58//172 21//173
f 22//172 21//173 58//172
f 138//118 81//118 139//118
f 189//174 172//171 130//170
f 146//175 189//174 130//170
f 21//173 20//176 69//176
f 21//173 69//176 66//173
f 136//177 177//178 146//175
f 177//178 189//174 146//175
f 80//179 69//176 19//179
f 20//176 19//179 69//176
f 168//118 139//118 81//118
f 191//118 81//118 138//118
f 159//118 163//118 81//118
f 168//118 81//118 163//118
f 136//177 135//180 170//181
f 19//179 15//182 88//182
f 19//179 88//182 80//179
f 177//178 136//177 170//181
f 15//182 14//183 99//183
f 15//182 99//183 88//182
f 176//184 170//181 135//180
f 135//180 142//159 176//184
f 99//183 14//183 97//185
f 14//183 17//185 97//185
f 159//118 81//118 155//118
f 17//185 18//91 8//91
f 17//185 8//91 97//185
f 175//158 176//184 142//159
f 192//186 181//186 157//142
f 180//142 157//142 181//186
f 13//96 178//156 85//156
f 18//91 16//92 8//91
f 178//156 184//187 89//187
f 178//156 89//187 85//156
f 180//142 141//116 157//142
f 93//188 89//187 183//188
f 184//187 183//188 89//187
f 179//189 143//189 140//138
f 179//189 140//138 174//138
f 101//190 93//188 183//188
f 101//190 183//188 182//190
f 143//189 179//189 192//186
f 181//186 192//186 179//189
f 190//191 191//192 192//193
f 103//194 101//190 44//194
f 182//190 44//194 101//190
f 191//192 143//132 192//193
f 191//192 138//128 143//132
f 157//195 190//191 192//193
f 103//194 44//194 110//108
f 43//108 110//108 44//194
f 188//167 157//195 129//168
f 157//195 188//167 190//191
f 85//68 29//17 13//12
